<svg width="28" height="34" viewBox="0 0 28 34" fill="none" xmlns="http://www.w3.org/2000/svg">
<path d="M9.81051 10.08C12.594 10.08 14.8505 7.82351 14.8505 5.04C14.8505 2.25648 12.594 0 9.81051 0C7.02699 0 4.77051 2.25648 4.77051 5.04C4.77051 7.82351 7.02699 10.08 9.81051 10.08Z" fill="#979797"/>
<path d="M9.82 12.6719C15.24 12.6719 19.64 17.0719 19.64 22.4919V24.8519C19.64 25.9519 18.75 26.8419 17.65 26.8419H1.99C0.890002 26.8419 0 25.9519 0 24.8519V22.4919C0 17.0719 4.4 12.6719 9.82 12.6719Z" fill="#979797"/>
<path d="M19.64 33.1492C23.8374 33.1492 27.24 29.7466 27.24 25.5492C27.24 21.3519 23.8374 17.9492 19.64 17.9492C15.4427 17.9492 12.04 21.3519 12.04 25.5492C12.04 29.7466 15.4427 33.1492 19.64 33.1492Z" fill="white" stroke="#979797" stroke-width="1.5" stroke-miterlimit="10"/>
<path d="M15.6406 25.41L18.4006 28.17L23.5706 23" stroke="#979797" stroke-width="1.5" stroke-linecap="round" stroke-linejoin="round"/>
</svg>
