<svg width="25" height="24" viewBox="0 0 25 24" fill="none" xmlns="http://www.w3.org/2000/svg">
<path d="M9.53745 21.0181L3.55959 22.7603C2.27968 23.1333 1 22.1733 1 20.8401V6.47473C1 5.58656 1.58574 4.80479 2.43814 4.55527L15.4381 0.749909C16.7186 0.375106 18 1.33522 18 2.66936V6.74412C18 6.74412 2.57269 5.23815 9.46256 21.0181H9.53745Z" stroke="url(#paint0_angular_589_27291)" stroke-linecap="round" stroke-linejoin="round"/>
<path d="M15.1804 5C16.5206 5.02713 17.7173 5.23063 18.8661 5.70545C20.0149 6.18027 21.0201 6.8518 21.9022 7.72682C22.5176 8.33052 23.0304 9.00205 23.4476 9.7482C23.6595 10.1348 23.8715 10.5215 23.9536 10.9624C24.063 11.5864 23.9809 12.1969 23.6869 12.7531C23.1193 13.8181 22.203 14.354 20.9927 14.32C20.138 14.2929 19.4542 13.8995 18.9071 13.2551C18.6746 12.9838 18.531 12.6582 18.3327 12.3597C18.025 11.8917 17.6421 11.505 17.1429 11.2337C16.5822 10.9217 15.9804 10.7453 15.3377 10.7385C14.6949 10.725 14.1137 10.9217 13.5598 11.2405C12.7392 11.7153 12.1922 12.414 11.905 13.3026C11.6178 14.2115 11.6998 15.0933 12.1306 15.948C12.493 16.6602 13.0469 17.1757 13.7512 17.5624C14.6607 18.0643 15.2214 18.8376 15.3172 19.8619C15.4129 20.8115 15.1052 21.6526 14.3393 22.2902C13.8333 22.7108 13.2589 22.955 12.6025 22.9957C12.1375 23.0228 11.693 22.9211 11.269 22.7243C10.4827 22.3513 9.77835 21.8629 9.1219 21.2863C8.37655 20.6284 7.75429 19.8686 7.25511 19.014C6.79013 18.2339 6.44823 17.3996 6.24992 16.5042C6.11316 15.8802 6.01743 15.2493 6.00375 14.6049C5.95589 12.8888 6.36617 11.288 7.20725 9.7889C7.65856 8.9817 8.21928 8.25591 8.8894 7.61829C9.6074 6.93998 10.4074 6.37698 11.2964 5.94286C12.3084 5.45447 13.3751 5.15601 14.4897 5.06105C14.7428 5.0407 15.0026 5.02035 15.1599 5.01357L15.1804 5Z" fill="url(#paint1_linear_589_27291)"/>
<path d="M17 19.9892C17 18.8555 17.4325 17.9053 18.2265 17.1255C18.8462 16.5226 19.5949 16.1491 20.447 16.0377C21.6025 15.887 22.6482 16.1884 23.5584 16.942C24.2942 17.5515 24.7525 18.3247 24.9268 19.2618C25.0753 20.0351 24.9978 20.7887 24.6944 21.5161C24.4814 22.0273 24.1909 22.4794 23.7972 22.8595C23.1517 23.4886 22.3771 23.8753 21.4863 23.9736C20.3244 24.0981 19.2786 23.7835 18.3749 23.0168C17.9876 22.6891 17.6842 22.2894 17.4454 21.8438C17.1162 21.2278 17 20.7166 17 19.9892Z" fill="url(#paint2_linear_589_27291)"/>
<defs>
<radialGradient id="paint0_angular_589_27291" cx="0" cy="0" r="1" gradientUnits="userSpaceOnUse" gradientTransform="translate(9.5 11.7531) rotate(90) scale(11.7531 8.5)">
<stop stop-color="#F5C5BB"/>
<stop offset="0.0001" stop-color="#F9E499"/>
<stop offset="0.3125" stop-color="#FEB6DD"/>
<stop offset="0.619792" stop-color="#B4B6E7"/>
<stop offset="1" stop-color="#53B6E7"/>
</radialGradient>
<linearGradient id="paint1_linear_589_27291" x1="-0.882353" y1="8.70588" x2="25.9461" y2="34.2975" gradientUnits="userSpaceOnUse">
<stop stop-color="#F9E499"/>
<stop offset="0.36" stop-color="#F2B2CF"/>
<stop offset="0.76" stop-color="#B1B0D7"/>
<stop offset="1" stop-color="#55ABD7"/>
</linearGradient>
<linearGradient id="paint2_linear_589_27291" x1="10" y1="-0.5" x2="25.3551" y2="27.8074" gradientUnits="userSpaceOnUse">
<stop stop-color="#F9E499"/>
<stop offset="0.36" stop-color="#F2B2CF"/>
<stop offset="0.76" stop-color="#B1B0D7"/>
<stop offset="1" stop-color="#55ABD7"/>
<stop offset="1" stop-color="#55ABD7"/>
</linearGradient>
</defs>
</svg>
