<svg width="33" height="32" viewBox="0 0 33 32" fill="none" xmlns="http://www.w3.org/2000/svg">
<path d="M14.0995 5.04C14.0995 7.4093 12.1788 9.33 9.80953 9.33C7.44023 9.33 5.51953 7.4093 5.51953 5.04C5.51953 2.6707 7.44023 0.75 9.80953 0.75C12.1788 0.75 14.0995 2.6707 14.0995 5.04Z" fill="black" stroke="black" stroke-width="1.5"/>
<path d="M9.82 13.4219C14.8258 13.4219 18.89 17.4861 18.89 22.4919V24.8519C18.89 25.5377 18.3358 26.0919 17.65 26.0919H1.99001C1.30422 26.0919 0.75 25.5377 0.75 24.8519V22.4919C0.75 17.4861 4.81421 13.4219 9.82 13.4219Z" fill="black" stroke="black" stroke-width="1.5"/>
<path d="M27.0995 10.04C27.0995 12.4093 25.1788 14.33 22.8095 14.33C20.4402 14.33 18.5195 12.4093 18.5195 10.04C18.5195 7.6707 20.4402 5.75 22.8095 5.75C25.1788 5.75 27.0995 7.6707 27.0995 10.04Z" fill="black" stroke="black" stroke-width="1.5"/>
<path d="M22.82 18.4219C27.8258 18.4219 31.89 22.4861 31.89 27.4919V29.8519C31.89 30.5377 31.3358 31.0919 30.65 31.0919H14.99C14.3042 31.0919 13.75 30.5377 13.75 29.8519V27.4919C13.75 22.4861 17.8142 18.4219 22.82 18.4219Z" fill="black" stroke="black" stroke-width="1.5"/>
</svg>
