<svg width="9" height="16" viewBox="0 0 9 16" fill="none" xmlns="http://www.w3.org/2000/svg">
<path d="M7.37382 15.7387L0.262714 8.63082C0.1794 8.54823 0.11327 8.44996 0.0681425 8.34169C0.0230147 8.23342 -0.000218746 8.11729 -0.000218741 8C-0.000218736 7.88271 0.0230147 7.76658 0.0681426 7.65831C0.11327 7.55004 0.1794 7.45177 0.262714 7.36918L7.37382 0.261296C7.5412 0.0939908 7.76822 -5.18536e-08 8.00494 -3.90135e-08C8.24165 -2.61735e-08 8.46867 0.0939908 8.63605 0.261296C8.80343 0.428601 8.89746 0.655515 8.89746 0.89212C8.89746 1.12873 8.80343 1.35564 8.63605 1.52294L2.14716 8L8.63605 14.4771C8.80343 14.6444 8.89746 14.8713 8.89746 15.1079C8.89746 15.3445 8.80343 15.5714 8.63605 15.7387C8.46866 15.906 8.24165 16 8.00493 16C7.76822 16 7.5412 15.906 7.37382 15.7387Z" fill="black"/>
</svg>
