<svg width="21" height="19" viewBox="0 0 21 19" fill="none" xmlns="http://www.w3.org/2000/svg">
<path d="M14.5557 6.52989V2.77786C14.5557 1.24369 13.312 0 11.7779 0C10.2437 0 9 1.24369 9 2.77786V6.52989V10.0218V13.7977C9 16.2829 11.0147 18.2977 13.5 18.2977H15.651C18.6052 18.2977 21 15.9028 21 12.9487C21 9.40368 18.1007 6.52989 14.5557 6.52989Z" fill="url(#paint0_linear_674_11190)"/>
<path d="M0 10.1189L0 15.3008C0 16.9576 1.34315 18.3008 3 18.3008C4.65685 18.3008 6 16.9576 6 15.3008L6 10.1189C6 8.46202 4.65685 7.11887 3 7.11887C1.34315 7.11887 0 8.46202 0 10.1189Z" fill="url(#paint1_linear_674_11190)"/>
<defs>
<linearGradient id="paint0_linear_674_11190" x1="18" y1="3.55788" x2="-3.33581" y2="10.3965" gradientUnits="userSpaceOnUse">
<stop stop-color="#B1B0D7"/>
<stop offset="1" stop-color="#55ABD7"/>
</linearGradient>
<linearGradient id="paint1_linear_674_11190" x1="16" y1="14.7429" x2="-8.79075" y2="15.1134" gradientUnits="userSpaceOnUse">
<stop stop-color="#B1B0D7"/>
<stop offset="1" stop-color="#55ABD7"/>
</linearGradient>
</defs>
</svg>
