<svg width="38" height="35" viewBox="0 0 38 35" fill="none" xmlns="http://www.w3.org/2000/svg">
<path d="M29.5188 7.39457L28.8187 5.50939C27.8094 2.79749 25.2281 1 22.3406 1H15.5219C12.6344 1 10.0531 2.79749 9.04688 5.50939L8.34688 7.39457C4.2625 7.54175 1 10.9019 1 15.0261V26.2213C1 30.4395 4.4125 33.8591 8.62188 33.8591H29.2375C33.4469 33.8591 36.8594 30.4395 36.8594 26.2213V15.0261C36.8594 10.9019 33.5938 7.54175 29.5156 7.39457H29.5188Z" fill="black" stroke="black" stroke-width="0.44" stroke-miterlimit="10"/>
<path d="M18.618 25.9819C22.2234 25.9819 25.1461 23.0531 25.1461 19.4402C25.1461 15.8273 22.2234 12.8984 18.618 12.8984C15.0126 12.8984 12.0898 15.8273 12.0898 19.4402C12.0898 23.0531 15.0126 25.9819 18.618 25.9819Z" fill="white" stroke="#040000" stroke-width="0.44" stroke-miterlimit="10"/>
<path d="M26.3531 13.4234C27.1781 13.4234 27.8469 12.7533 27.8469 11.9266C27.8469 11.0999 27.1781 10.4297 26.3531 10.4297C25.5281 10.4297 24.8594 11.0999 24.8594 11.9266C24.8594 12.7533 25.5281 13.4234 26.3531 13.4234Z" fill="white" stroke="#040000" stroke-width="0.44" stroke-miterlimit="10"/>
</svg>
