<svg width="7" height="11" viewBox="0 0 7 11" fill="none" xmlns="http://www.w3.org/2000/svg">
<path d="M5.71409 5.71409L1.71409 9.71409C1.52579 9.90239 1.27039 10.0082 1.00409 10.0082C0.737788 10.0082 0.482393 9.90239 0.29409 9.71409C0.105786 9.52579 -1.62089e-06 9.27039 -1.57433e-06 9.00409C-1.52776e-06 8.73779 0.105786 8.4824 0.29409 8.29409L3.59409 5.00409L0.294091 1.71409C0.105787 1.52579 -2.22123e-07 1.27039 -1.75561e-07 1.00409C-1.52506e-07 0.872233 0.0259708 0.741665 0.0764312 0.619843C0.126892 0.498021 0.200853 0.38733 0.294091 0.294092C0.38733 0.200853 0.49802 0.126893 0.619842 0.0764323C0.741664 0.025972 0.872232 1.52506e-07 1.00409 1.75561e-07C1.27039 2.22123e-07 1.52579 0.105788 1.71409 0.294092L5.71409 4.29409C5.80782 4.38706 5.88221 4.49766 5.93298 4.61952C5.98375 4.74138 6.00989 4.87208 6.00989 5.00409C6.00989 5.1361 5.98375 5.26681 5.93298 5.38867C5.88221 5.51053 5.80782 5.62113 5.71409 5.71409Z" fill="#AEAEAE"/>
</svg>
