<svg width="20" height="20" viewBox="0 0 20 20" fill="none" xmlns="http://www.w3.org/2000/svg">
<path d="M20 10C20 8.44095 18.7402 7.1811 17.1811 7.1811H16.8189L17.0709 6.92914C18.1732 5.82677 18.1732 4.0315 17.0709 2.92913C15.9685 1.82677 14.1732 1.82677 13.0709 2.92913L12.8189 3.1811V2.8189C12.8189 1.25984 11.5591 0 10 0C8.44094 0 7.1811 1.25984 7.1811 2.8189V3.1811L6.92913 2.92913C5.82677 1.82677 4.0315 1.82677 2.92913 2.92913C1.82677 4.0315 1.82677 5.82677 2.92913 6.92914L3.1811 7.1811H2.8189C1.25984 7.1811 0 8.44095 0 10C0 11.5591 1.25984 12.8189 2.8189 12.8189H3.1811L2.92913 13.0709C1.82677 14.1732 1.82677 15.9685 2.92913 17.0709C4.0315 18.1732 5.82677 18.1732 6.92913 17.0709L7.1811 16.8189V17.1811C7.1811 18.7402 8.44094 20 10 20C11.5591 20 12.8189 18.7402 12.8189 17.1811V16.8189L13.0709 17.0709C14.1732 18.1732 15.9685 18.1732 17.0709 17.0709C18.1732 15.9685 18.1732 14.1732 17.0709 13.0709L16.8189 12.8189H17.1811C18.7402 12.8189 20 11.5591 20 10ZM9.98425 13.7638C7.90551 13.7638 6.22047 12.0787 6.22047 10C6.22047 7.92126 7.90551 6.23622 9.98425 6.23622C12.063 6.23622 13.748 7.92126 13.748 10C13.748 12.0787 12.063 13.7638 9.98425 13.7638Z" fill="black"/>
</svg>
