<svg width="12" height="10" viewBox="0 0 12 10" fill="none" xmlns="http://www.w3.org/2000/svg">
<path d="M0.00466537 1.31783C0.00466537 0.596613 0.592675 0.0546589 1.32881 0.00463295C1.41409 0.000463486 1.50387 0.0129709 1.58915 0.0129709C3.21403 0.0129709 4.8434 0.0129709 6.46828 0.0129709C6.76004 0.0129709 7.0518 0.0296459 7.34356 0.0129709C7.64879 -0.00370502 7.94953 0.000463486 8.25476 0.000463486C8.4343 0.000463486 8.61384 0.0171394 8.79339 0.0129709C9.20634 0.000464439 9.61481 -0.00370502 10.0278 0.00463295C10.3061 0.00880146 10.5888 0.000463486 10.8626 0.0338144C11.4641 0.108854 11.9444 0.709173 11.9938 1.15941C12.0252 1.47625 11.9354 1.75139 11.7738 2.01403C11.2621 2.8353 10.7549 3.65657 10.2432 4.47784C9.86168 5.09066 9.47566 5.70349 9.09413 6.31631C8.57794 7.15009 8.06174 7.98386 7.54106 8.82181C7.39743 9.05526 7.26277 9.29706 7.08771 9.51384C6.76004 9.91822 6.12715 10.0975 5.60647 9.9474C5.21147 9.83484 4.93766 9.59722 4.73119 9.26788C4.18357 8.3799 3.62698 7.4961 3.07488 6.60813C2.56318 5.78269 2.05148 4.95726 1.53529 4.13599C1.08642 3.41894 0.646538 2.69773 0.202165 1.98068C0.0764828 1.77641 -0.00431156 1.55962 0.000177383 1.322L0.00466537 1.31783Z" fill="white"/>
</svg>
