<svg width="46" height="43" viewBox="0 0 46 43" fill="none" xmlns="http://www.w3.org/2000/svg">
<path d="M12.6 2.17422C12.6 1.83248 13.0008 1.64812 13.2603 1.87052L21.2237 8.6963C21.5057 8.93797 21.3348 9.4 20.9634 9.4H13C12.7791 9.4 12.6 9.22091 12.6 9V2.17422Z" fill="white" stroke="#E1E1E1" stroke-width="1.2"/>
<path d="M33.0666 2.08062C33.0666 1.74522 32.6787 1.55875 32.4167 1.76828L23.7675 8.68765C23.4723 8.92386 23.6393 9.4 24.0174 9.4H32.6666C32.8875 9.4 33.0666 9.22091 33.0666 9V2.08062Z" fill="white" stroke="#E1E1E1" stroke-width="1.2"/>
<rect y="5" width="9" height="27" rx="4.5" fill="#D9D9D9"/>
<rect x="37" y="5" width="9" height="27" rx="4.5" fill="#D9D9D9"/>
<path d="M0 17H46V37C46 40.3137 43.3137 43 40 43H6C2.68629 43 0 40.3137 0 37V17Z" fill="#D9D9D9"/>
</svg>
