<svg width="46" height="43" viewBox="0 0 46 43" fill="none" xmlns="http://www.w3.org/2000/svg">
<path d="M41.6467 5C39.2426 5 37.2971 6.92004 37.2971 9.28456V17.1979H8.7029V9.28456C8.7029 6.92004 6.75372 5 4.3496 5C1.94549 5 0 6.92004 0 9.28456V37.4731C0 40.5225 2.51138 42.9964 5.60714 42.9964H40.3929C43.4886 42.9964 46 40.5225 46 37.4731V9.28456C46 6.91639 44.0508 5 41.6504 5H41.6467Z" fill="url(#paint0_linear_697_12122)"/>
<path d="M12.6 2.17422C12.6 1.83248 13.0008 1.64812 13.2603 1.87052L21.2237 8.6963C21.5057 8.93797 21.3348 9.4 20.9634 9.4H13C12.7791 9.4 12.6 9.22091 12.6 9V2.17422Z" fill="white" stroke="#E1E1E1" stroke-width="1.2"/>
<path d="M33.0667 2.08062C33.0667 1.74522 32.6788 1.55875 32.4169 1.76828L23.7677 8.68765C23.4724 8.92386 23.6394 9.4 24.0175 9.4H32.6667C32.8877 9.4 33.0667 9.22091 33.0667 9V2.08062Z" fill="white" stroke="#E1E1E1" stroke-width="1.2"/>
<defs>
<linearGradient id="paint0_linear_697_12122" x1="-3" y1="1.5" x2="43.5" y2="123.5" gradientUnits="userSpaceOnUse">
<stop stop-color="#F9E499"/>
<stop offset="0.286458" stop-color="#F2B2CF"/>
<stop offset="0.604167" stop-color="#55ABD7"/>
<stop offset="1" stop-color="#B1B0D7"/>
</linearGradient>
</defs>
</svg>
