<svg width="29" height="41" viewBox="0 0 29 41" fill="none" xmlns="http://www.w3.org/2000/svg">
<path d="M0.6 2.17422C0.6 1.83248 1.00085 1.64812 1.26032 1.87052L11.5571 10.6963C11.839 10.938 11.6681 11.4 11.2967 11.4H1C0.779086 11.4 0.6 11.2209 0.6 11V2.17422Z" fill="white" stroke="#E1E1E1" stroke-width="1.2"/>
<path d="M28.4 2.08062C28.4 1.74523 28.012 1.55875 27.7501 1.76828L16.6009 10.6877C16.3056 10.9239 16.4727 11.4 16.8508 11.4H28C28.2209 11.4 28.4 11.2209 28.4 11V2.08062Z" fill="white" stroke="#E1E1E1" stroke-width="1.2"/>
<path d="M15.5283 15.8666C15.7943 15.5238 16.341 15.662 16.4122 16.0901L19.4722 34.483C19.5042 34.6755 19.4407 34.8714 19.3019 35.0085L14.9248 39.3303C14.6911 39.561 14.3154 39.561 14.0817 39.3303L9.70465 35.0085L9.42436 35.2923L9.70465 35.0085C9.56585 34.8714 9.50234 34.6755 9.53435 34.483L12.5943 16.0901C12.6655 15.662 13.2122 15.5238 13.4782 15.8666C13.9978 16.5358 15.0088 16.5358 15.5283 15.8666Z" fill="#E1E1E1" stroke="#E1E1E1" stroke-width="0.8"/>
<path d="M12.8723 17.6834L12.872 17.6828L9.65066 12.1696C9.65061 12.1695 9.65056 12.1694 9.65051 12.1693C8.94001 10.948 9.83079 9.4 11.2832 9.4H17.7265C19.1755 9.4 20.0601 10.9452 19.3478 12.1694C19.3477 12.1695 19.3477 12.1695 19.3477 12.1696L16.1272 17.6814C16.127 17.6817 16.1269 17.6819 16.1268 17.6821C15.3985 18.9163 13.5874 18.912 12.8723 17.6834Z" fill="#E1E1E1" stroke="#E1E1E1" stroke-width="0.8"/>
</svg>
