<svg width="29" height="40" viewBox="0 0 29 40" fill="none" xmlns="http://www.w3.org/2000/svg">
<path d="M0.6 2.17422C0.6 1.83248 1.00085 1.64812 1.26032 1.87052L11.5571 10.6963C11.839 10.938 11.6681 11.4 11.2967 11.4H1C0.779086 11.4 0.6 11.2209 0.6 11V2.17422Z" fill="white" stroke="#D9D9D9" stroke-width="1.2"/>
<path d="M28.4 2.08062C28.4 1.74523 28.012 1.55875 27.7501 1.76828L16.6009 10.6877C16.3056 10.9239 16.4727 11.4 16.8508 11.4H28C28.2209 11.4 28.4 11.2209 28.4 11V2.08062Z" fill="white" stroke="#D9D9D9" stroke-width="1.2"/>
<path d="M19.6937 12.3376C20.5632 10.8567 19.4792 9 17.7288 9H11.2808C9.53048 9 8.43511 10.8567 9.30463 12.3376L12.0261 16.9462L9.14245 34.1583C9.08841 34.4808 9.19551 34.8094 9.42926 35.0382L13.7997 39.3155C14.1884 39.6959 14.8099 39.6959 15.1986 39.3155L19.5691 35.0382C19.8028 34.8094 19.9099 34.4808 19.8559 34.1583L16.9722 16.9462L19.6937 12.3376Z" fill="url(#paint0_linear_697_12123)"/>
<defs>
<linearGradient id="paint0_linear_697_12123" x1="2" y1="0.500001" x2="51" y2="45.5" gradientUnits="userSpaceOnUse">
<stop stop-color="#F9E499"/>
<stop offset="0.354167" stop-color="#F2B2CF"/>
<stop offset="0.682292" stop-color="#55ABD7"/>
<stop offset="1" stop-color="#B1B0D7"/>
</linearGradient>
</defs>
</svg>
