<svg width="27" height="27" viewBox="0 0 27 27" fill="none" xmlns="http://www.w3.org/2000/svg">
<path d="M26.5822 24.5647L20.3309 18.3276C21.8914 16.3432 22.7373 13.8905 22.7319 11.366C22.7319 9.118 22.0653 6.92051 20.8164 5.05138C19.5675 3.18226 17.7924 1.72545 15.7155 0.865188C13.6387 0.00492466 11.3534 -0.220159 9.14859 0.218399C6.9438 0.656958 4.91858 1.73946 3.32902 3.32902C1.73946 4.91858 0.656958 6.9438 0.218399 9.14859C-0.220159 11.3534 0.00492466 13.6387 0.865188 15.7155C1.72545 17.7924 3.18226 19.5675 5.05138 20.8164C6.92051 22.0653 9.118 22.7319 11.366 22.7319C13.8905 22.7373 16.3432 21.8914 18.3276 20.3309L24.5647 26.5822C24.8322 26.8497 25.1951 27 25.5734 27C25.9518 27 26.3146 26.8497 26.5822 26.5822C26.8497 26.3146 27 25.9518 27 25.5734C27 25.1951 26.8497 24.8322 26.5822 24.5647ZM5.34201 17.461C3.931 16.0812 3.04244 14.2545 2.82795 12.2927C2.61345 10.3309 3.08631 8.35539 4.16583 6.70329C5.24536 5.0512 6.86467 3.82484 8.74751 3.23346C10.6304 2.64208 12.66 2.72231 14.4903 3.46047C16.3206 4.19863 17.8381 5.54897 18.7838 7.28113C19.7296 9.01328 20.045 11.0199 19.6763 12.9587C19.3077 14.8975 18.2777 16.6483 16.7622 17.9124C15.2466 19.1765 13.3394 19.8756 11.366 19.8905C9.10591 19.8885 6.93913 18.989 5.34201 17.3899V17.461Z" fill="#101010"/>
</svg>
