<svg width="9" height="16" viewBox="0 0 9 16" fill="none" xmlns="http://www.w3.org/2000/svg">
<path d="M1.52266 0.261296L8.63377 7.36918C8.71708 7.45177 8.78321 7.55004 8.82834 7.65831C8.87347 7.76658 8.8967 7.88271 8.8967 8C8.8967 8.11729 8.87347 8.23342 8.82834 8.34169C8.78321 8.44996 8.71708 8.54823 8.63377 8.63082L1.52266 15.7387C1.35528 15.906 1.12826 16 0.891549 16C0.654837 16 0.427819 15.906 0.260438 15.7387C0.0930572 15.5714 -0.000976589 15.3445 -0.000976601 15.1079C-0.000976614 14.8713 0.0930572 14.6444 0.260438 14.4771L6.74933 8L0.260438 1.52294C0.0930566 1.35564 -0.000977213 1.12873 -0.000977223 0.892119C-0.000977233 0.655515 0.0930565 0.428601 0.260438 0.261296C0.427819 0.0939913 0.654836 -2.86665e-08 0.891549 -3.90135e-08C1.12826 -4.93606e-08 1.35528 0.0939912 1.52266 0.261296Z" fill="black"/>
</svg>
