<svg width="8" height="7" viewBox="0 0 8 7" fill="none" xmlns="http://www.w3.org/2000/svg">
<path d="M0.00311139 0.879854C0.00311143 0.399043 0.395118 0.037741 0.885874 0.00439009C0.94273 0.00161062 1.00258 0.0099486 1.05943 0.0099486C2.14269 0.0099487 3.22894 0.00994879 4.31219 0.00994888C4.5067 0.0099489 4.7012 0.0210659 4.89571 0.00994894C5.09919 -0.00116803 5.29969 0.001611 5.50317 0.00161101C5.62287 0.00161102 5.74256 0.012728 5.86226 0.00994902C6.13756 0.00161107 6.40987 -0.00116791 6.68517 0.0043906C6.8707 0.00716962 7.05923 0.00161115 7.24176 0.0238451C7.64275 0.0738716 7.96294 0.474084 7.99585 0.774243C8.0168 0.985466 7.95695 1.1689 7.84922 1.34399C7.50809 1.8915 7.16995 2.43901 6.82881 2.98653C6.57446 3.39508 6.31711 3.80363 6.06275 4.21218C5.71862 4.76803 5.3745 5.32388 5.02738 5.88251C4.93162 6.03814 4.84185 6.19934 4.72514 6.34386C4.5067 6.61345 4.08477 6.73296 3.73765 6.6329C3.47431 6.55786 3.29178 6.39945 3.15412 6.17989C2.78905 5.5879 2.41799 4.9987 2.04992 4.40672C1.70879 3.85643 1.36765 3.30614 1.02353 2.75863C0.724284 2.2806 0.431026 1.79979 0.134778 1.32175C0.0509896 1.18557 -0.00287388 1.04105 0.000118761 0.882633L0.00311139 0.879854Z" fill="black"/>
</svg>
