<svg width="51" height="47" viewBox="0 0 51 47" fill="none" xmlns="http://www.w3.org/2000/svg">
<g opacity="0.8">
<path d="M11.0452 9.7521L12.0033 7.1719C13.3848 3.46019 16.9177 1 20.8697 1H30.2024C34.1544 1 37.6873 3.46019 39.0646 7.1719L40.0226 9.7521C45.6128 9.95354 50.0781 14.5525 50.0781 20.1972V35.5198C50.0781 41.2931 45.4075 45.9734 39.6462 45.9734H11.4301C5.66888 45.9734 0.998272 41.2931 0.998272 35.5198V20.1972C0.998272 14.5525 5.46785 9.95354 11.0495 9.7521H11.0452Z" fill="#979797" stroke="#979797" stroke-width="0.44" stroke-miterlimit="10"/>
<path d="M25.9636 35.1942C21.029 35.1942 17.0287 31.1856 17.0287 26.2406C17.0287 21.2957 21.029 17.2871 25.9636 17.2871C30.8982 17.2871 34.8984 21.2957 34.8984 26.2406C34.8984 31.1856 30.8982 35.1942 25.9636 35.1942Z" fill="white" stroke="#979797" stroke-width="0.44" stroke-miterlimit="10"/>
<path d="M15.3774 18.003C14.2483 18.003 13.333 17.0857 13.333 15.9542C13.333 14.8228 14.2483 13.9055 15.3774 13.9055C16.5065 13.9055 17.4219 14.8228 17.4219 15.9542C17.4219 17.0857 16.5065 18.003 15.3774 18.003Z" fill="white" stroke="#979797" stroke-width="0.44" stroke-miterlimit="10"/>
</g>
</svg>
