<svg width="45" height="45" viewBox="0 0 45 45" fill="none" xmlns="http://www.w3.org/2000/svg">
<path d="M22.5843 45C10.0601 44.9342 0.498308 35.0952 0.0210395 23.5779C-0.538517 10.1686 10.1424 -0.0817743 22.6008 0.000491692C34.9933 0.0663045 44.9172 9.83951 44.9995 22.3768C45.0818 35.2762 34.8617 44.8026 22.5843 45ZM31.1587 22.6566C31.1093 17.4902 27.4393 13.8541 22.5185 13.8212C17.8446 13.7718 13.9277 17.5396 13.8289 22.4591C13.7302 26.9179 17.5154 31.1464 22.3868 31.1793C27.357 31.1958 31.0271 27.428 31.1587 22.673V22.6566Z" fill="url(#paint0_linear_634_19001)"/>
<path d="M22.5185 13.8208C27.4393 13.8537 31.1093 17.4899 31.1587 22.6562V22.6726C31.0271 27.4276 27.357 31.1954 22.3868 31.1789C17.5154 31.146 13.7302 26.9175 13.8289 22.4587C13.9277 17.5392 17.8446 13.7714 22.5185 13.8208Z" fill="white"/>
<defs>
<linearGradient id="paint0_linear_634_19001" x1="-9.32685" y1="-37.0521" x2="46.9842" y2="68.2607" gradientUnits="userSpaceOnUse">
<stop stop-color="#F9E499"/>
<stop offset="0.36" stop-color="#F2B2CF"/>
<stop offset="0.76" stop-color="#B1B0D7"/>
<stop offset="1" stop-color="#55ABD7"/>
</linearGradient>
</defs>
</svg>
