<svg width="124" height="86" viewBox="0 0 124 86" fill="none" xmlns="http://www.w3.org/2000/svg">
<g opacity="0.8">
<path d="M47.0452 9.7521L48.0033 7.1719C49.3848 3.46019 52.9177 1 56.8697 1H66.2024C70.1544 1 73.6873 3.46019 75.0646 7.1719L76.0226 9.7521C81.6128 9.95354 86.0781 14.5525 86.0781 20.1972V35.5198C86.0781 41.2931 81.4075 45.9734 75.6462 45.9734H47.4301C41.6689 45.9734 36.9983 41.2931 36.9983 35.5198V20.1972C36.9983 14.5525 41.4679 9.95354 47.0495 9.7521H47.0452Z" fill="#979797" stroke="#979797" stroke-width="0.44" stroke-miterlimit="10"/>
<path d="M61.9636 35.1942C57.029 35.1942 53.0287 31.1856 53.0287 26.2406C53.0287 21.2957 57.029 17.2871 61.9636 17.2871C66.8982 17.2871 70.8984 21.2957 70.8984 26.2406C70.8984 31.1856 66.8982 35.1942 61.9636 35.1942Z" fill="white" stroke="#979797" stroke-width="0.44" stroke-miterlimit="10"/>
<path d="M51.3774 18.003C50.2483 18.003 49.333 17.0857 49.333 15.9542C49.333 14.8228 50.2483 13.9055 51.3774 13.9055C52.5065 13.9055 53.4219 14.8228 53.4219 15.9542C53.4219 17.0857 52.5065 18.003 51.3774 18.003Z" fill="white" stroke="#979797" stroke-width="0.44" stroke-miterlimit="10"/>
</g>
<path opacity="0.8" d="M36.2103 71.6286H37.4403V85.1136H36.2103V71.6286ZM30.3453 72.6636C32.3403 72.6636 33.7653 74.4936 33.7653 77.3586C33.7653 80.2236 32.3403 82.0536 30.3453 82.0536C28.3503 82.0536 26.9253 80.2236 26.9253 77.3586C26.9253 74.4936 28.3503 72.6636 30.3453 72.6636ZM30.3453 73.7736C29.0253 73.7736 28.0953 75.1836 28.0953 77.3586C28.0953 79.5486 29.0253 80.9586 30.3453 80.9586C31.6503 80.9586 32.5803 79.5486 32.5803 77.3586C32.5803 75.1836 31.6503 73.7736 30.3453 73.7736ZM41.0091 72.9486H47.1891V81.6936H41.0091V72.9486ZM45.9891 73.9386H42.2091V80.7186H45.9891V73.9386ZM50.0091 71.6286H51.2391V85.1136H50.0091V71.6286ZM58.8279 74.0286V75.7386C58.8279 78.0186 60.4479 80.3436 62.4279 81.1836L61.7379 82.1736C60.1779 81.4536 58.8579 79.9086 58.2129 78.0636C57.5979 80.0286 56.2779 81.7236 54.7479 82.5036L54.0279 81.5136C55.9629 80.5986 57.5979 78.0636 57.5979 75.7386V74.0286H54.4779V73.0086H61.9929V74.0286H58.8279ZM63.8079 71.6436H65.0379V85.0836H63.8079V71.6436ZM82.3171 75.7536V76.7436H73.0921V72.1686H82.2271V73.1586H74.3221V75.7536H82.3171ZM77.6371 84.1086C79.7371 84.1086 80.9971 83.5836 80.9971 82.6386C80.9971 81.6936 79.7521 81.1686 77.6371 81.1686C75.5221 81.1686 74.2771 81.6936 74.2771 82.6386C74.2771 83.5836 75.5221 84.1086 77.6371 84.1086ZM77.6371 80.2086C80.5021 80.2086 82.2421 81.0786 82.2421 82.6386C82.2421 84.1986 80.5021 85.0686 77.6371 85.0686C74.7721 85.0686 73.0321 84.1986 73.0321 82.6386C73.0321 81.0786 74.7721 80.2086 77.6371 80.2086ZM71.5621 78.0336H83.7421V79.0536H71.5621V78.0336ZM86.7109 82.0686V81.0636H96.0709V84.9636H94.8409V82.0686H86.7109ZM92.0809 79.0236H97.5559V80.0286H85.3459V79.0236H90.8359V77.6136H86.9209V74.3286H94.7809V72.9336H86.8909V71.9736H95.9959V75.2436H88.1359V76.6536H96.2809V77.6136H92.0809V79.0236Z" fill="#979797"/>
</svg>
