<svg width="16" height="16" viewBox="0 0 16 16" fill="none" xmlns="http://www.w3.org/2000/svg">
<path d="M15.7524 14.5569L12.0479 10.8608C12.9727 9.68483 13.474 8.23142 13.4708 6.73539C13.4708 5.40326 13.0758 4.10104 12.3357 2.99341C11.5956 1.88578 10.5436 1.02249 9.31292 0.512704C8.08218 0.00291832 6.72792 -0.130465 5.42138 0.129422C4.11485 0.389308 2.91471 1.03079 1.97275 1.97275C1.03079 2.91471 0.389308 4.11485 0.129422 5.42138C-0.130465 6.72792 0.00291832 8.08218 0.512704 9.31292C1.02249 10.5436 1.88578 11.5956 2.99341 12.3357C4.10104 13.0758 5.40326 13.4708 6.73539 13.4708C8.23142 13.474 9.68483 12.9727 10.8608 12.0479L14.5569 15.7524C14.7154 15.9109 14.9304 16 15.1546 16C15.3788 16 15.5939 15.9109 15.7524 15.7524C15.9109 15.5939 16 15.3788 16 15.1546C16 14.9304 15.9109 14.7154 15.7524 14.5569ZM3.16564 10.3472C2.32948 9.52959 1.80293 8.44714 1.67582 7.28457C1.54871 6.122 1.82892 4.95134 2.46864 3.97232C3.10836 2.9933 4.06796 2.26657 5.18371 1.91613C6.29947 1.56568 7.50225 1.61322 8.58686 2.05065C9.67147 2.48808 10.5707 3.28828 11.1312 4.31474C11.6916 5.3412 11.8785 6.53033 11.6601 7.67923C11.4416 8.82814 10.8312 9.86565 9.93313 10.6148C9.03504 11.3639 7.90486 11.7781 6.73539 11.7869C5.39609 11.7858 4.11208 11.2528 3.16564 10.3052V10.3472Z" fill="black"/>
</svg>
