<svg width="17" height="17" viewBox="0 0 17 17" fill="none" xmlns="http://www.w3.org/2000/svg">
<path d="M16.7369 15.4667L12.8009 11.5396C13.7835 10.2901 14.3161 8.74588 14.3127 7.15636C14.3127 5.74096 13.893 4.35736 13.1066 3.1805C12.3203 2.00364 11.2026 1.0864 9.89497 0.544748C8.58732 0.00310071 7.14842 -0.138619 5.76022 0.137511C4.37202 0.41364 3.09688 1.09522 2.09605 2.09605C1.09522 3.09688 0.41364 4.37202 0.137511 5.76022C-0.138619 7.14842 0.00310071 8.58732 0.544748 9.89497C1.0864 11.2026 2.00364 12.3203 3.1805 13.1066C4.35736 13.893 5.74096 14.3127 7.15636 14.3127C8.74588 14.3161 10.2901 13.7835 11.5396 12.8009L15.4667 16.7369C15.6351 16.9054 15.8636 17 16.1018 17C16.34 17 16.5685 16.9054 16.7369 16.7369C16.9054 16.5685 17 16.34 17 16.1018C17 15.8636 16.9054 15.6351 16.7369 15.4667ZM3.36349 10.9939C2.47507 10.1252 1.91561 8.97509 1.78056 7.73985C1.64551 6.50462 1.94323 5.2608 2.62293 4.22059C3.30263 3.18038 4.3222 2.40824 5.50769 2.03588C6.69318 1.66353 7.97114 1.71405 9.12354 2.17882C10.2759 2.64358 11.2314 3.4938 11.8269 4.58441C12.4223 5.67503 12.6209 6.93847 12.3888 8.15919C12.1567 9.3799 11.5082 10.4823 10.554 11.2782C9.59973 12.0741 8.39891 12.5143 7.15636 12.5236C5.73335 12.5224 4.36908 11.9561 3.36349 10.9492V10.9939Z" fill="#979797"/>
</svg>
